<?xml version="1.0" standalone="no"?>
<!DOCTYPE svg PUBLIC "-//W3C//DTD SVG 20010904//EN"
 "http://www.w3.org/TR/2001/REC-SVG-20010904/DTD/svg10.dtd">
<svg version="1.0" xmlns="http://www.w3.org/2000/svg"
 width="607.000000pt" height="1045.000000pt" viewBox="0 0 607.000000 1045.000000"
 preserveAspectRatio="xMidYMid meet">

<g transform="translate(0.000000,1045.000000) scale(0.100000,-0.100000)"
fill="#000000" stroke="none">
<path d="M508 10361 c-153 -49 -241 -146 -274 -300 -18 -88 -18 -303 2 -471
30 -266 67 -475 259 -1460 58 -300 123 -651 145 -780 54 -328 107 -498 212
-682 59 -105 166 -246 233 -307 l48 -44 -27 -46 c-15 -25 -41 -75 -58 -111
-173 -369 -210 -438 -368 -680 -241 -370 -324 -618 -324 -970 1 -177 14 -277
59 -434 92 -315 306 -628 586 -858 55 -45 98 -84 97 -87 -202 -401 -295 -691
-329 -1031 -25 -254 18 -574 105 -765 l22 -50 -39 -94 c-94 -227 -126 -477
-92 -720 24 -171 79 -257 201 -317 l59 -29 2035 0 2035 0 49 23 c128 59 186
146 212 318 31 207 4 454 -72 662 -62 168 -60 151 -29 228 142 353 138 792
-10 1252 -48 150 -115 312 -183 448 l-41 81 100 78 c328 256 556 608 641 992
19 83 22 129 23 303 0 179 -3 218 -23 308 -52 234 -125 396 -293 654 -132 202
-212 344 -318 562 -44 92 -96 193 -116 226 l-37 60 80 85 c125 132 236 309
299 475 54 142 78 245 174 770 55 300 133 718 175 930 152 783 188 1023 188
1275 0 173 -2 196 -22 254 -43 119 -96 176 -217 233 -116 54 -217 49 -362 -17
-164 -75 -349 -221 -603 -475 -552 -551 -1041 -1271 -1254 -1844 -68 -181
-121 -402 -151 -626 l-5 -45 -234 0 -233 0 -18 125 c-83 608 -425 1269 -1028
1993 -381 457 -680 733 -935 861 -133 67 -237 81 -344 47z m233 -402 c301
-194 861 -812 1191 -1315 190 -289 335 -575 398 -784 44 -149 84 -330 100
-460 11 -92 12 -297 2 -374 l-7 -48 -75 -28 c-41 -15 -111 -45 -155 -66 -44
-21 -83 -40 -86 -42 -3 -1 1 35 9 80 20 118 19 395 -2 533 -84 539 -372 1116
-923 1853 -63 84 -123 157 -134 162 -22 12 -53 0 -63 -26 -8 -21 7 -44 120
-191 376 -488 685 -1028 815 -1427 118 -361 138 -711 59 -1005 -9 -35 -21 -48
-83 -90 -40 -27 -98 -71 -129 -98 -31 -26 -77 -65 -102 -86 l-45 -38 -63 31
c-153 76 -295 223 -382 398 -68 135 -93 232 -171 672 -42 234 -125 686 -185
1005 -158 842 -200 1110 -200 1268 0 133 11 140 111 76z m4787 -79 c6 -202
-56 -579 -333 -2035 -25 -132 -59 -325 -76 -430 -42 -268 -79 -395 -155 -533
-88 -162 -257 -325 -393 -382 -30 -12 -32 -11 -98 50 -66 60 -253 205 -274
212 -17 6 -48 152 -60 280 -33 354 82 800 340 1318 139 279 298 534 495 797
113 150 120 169 72 191 -34 15 -49 2 -148 -130 -380 -504 -680 -1082 -794
-1530 -75 -298 -92 -594 -48 -817 l6 -31 -83 39 c-46 21 -117 51 -157 66 -53
21 -77 36 -83 52 -4 12 -13 71 -20 131 -30 294 60 661 261 1062 238 474 644
1011 1096 1450 204 198 393 345 434 338 12 -3 16 -22 18 -98z m-2158 -2921
c134 -18 271 -59 454 -137 337 -143 554 -297 740 -525 114 -140 157 -211 270
-443 120 -244 187 -365 328 -583 56 -86 118 -192 139 -236 158 -338 155 -635
-11 -970 -146 -294 -403 -536 -765 -719 -196 -100 -375 -154 -685 -208 -132
-23 -147 -23 -800 -23 -725 0 -755 2 -1000 62 -213 51 -443 153 -630 278 -551
368 -771 957 -559 1493 44 111 73 164 179 327 137 212 209 339 327 583 121
247 184 345 320 497 202 224 392 355 695 476 185 75 362 118 558 138 104 11
323 6 440 -10z m1213 -3851 c174 -265 299 -558 356 -834 26 -125 44 -356 35
-449 -14 -151 -55 -291 -116 -392 l-31 -51 -51 56 c-70 77 -194 166 -298 215
-67 32 -86 46 -81 57 4 8 9 105 11 216 3 168 0 220 -16 320 -48 277 -177 554
-349 743 -30 34 -54 64 -52 66 2 2 53 15 112 30 108 26 300 88 367 118 19 8
36 16 37 16 1 1 36 -50 76 -111z m-2838 67 c96 -38 300 -96 403 -116 34 -6 62
-14 62 -16 0 -3 -23 -30 -50 -61 -155 -174 -276 -424 -331 -688 -19 -91 -23
-140 -24 -294 0 -102 3 -211 7 -242 l8 -56 -38 -13 c-132 -43 -270 -129 -383
-236 -42 -40 -78 -73 -81 -73 -11 0 -79 161 -102 242 -87 304 -44 683 124
1075 93 215 269 513 304 513 6 0 52 -16 101 -35z m2166 -162 c180 -194 309
-444 370 -718 32 -142 38 -508 10 -553 -6 -10 -28 -9 -102 4 -102 18 -210 14
-330 -11 -326 -69 -607 -312 -743 -643 l-33 -82 -18 47 c-58 154 -155 302
-272 414 -138 132 -276 210 -453 256 -82 22 -116 26 -252 26 l-157 0 -8 56
c-16 111 -7 378 15 484 58 266 171 487 344 670 l73 78 690 1 c380 0 715 3 745
7 30 5 60 9 66 10 6 0 31 -20 55 -46z m302 -1358 c159 -24 320 -104 449 -223
177 -164 287 -373 323 -609 16 -105 19 -185 9 -246 l-7 -37 -923 0 -924 0 0
130 c0 388 200 729 525 897 182 93 343 119 548 88z m-1903 -36 c416 -96 730
-516 730 -976 l0 -123 -934 0 -933 0 -7 37 c-35 218 51 510 214 721 160 209
368 329 635 366 56 7 210 -5 295 -25z"/>
<path d="M2360 5057 c-94 -26 -183 -108 -231 -212 -119 -255 14 -553 257 -573
161 -13 311 103 366 281 29 96 23 228 -14 309 -71 154 -231 237 -378 195z"/>
<path d="M3635 5051 c-179 -47 -291 -240 -257 -444 24 -141 103 -251 220 -309
57 -28 77 -33 142 -33 94 0 151 27 220 102 174 190 108 539 -124 653 -66 33
-147 45 -201 31z"/>
<path d="M3195 4212 c-83 -34 -128 -37 -199 -13 -105 37 -168 25 -201 -39 -17
-33 -20 -102 -5 -130 5 -10 57 -59 114 -108 172 -149 203 -148 369 17 97 98
107 111 107 145 0 47 -20 94 -55 129 -33 32 -52 32 -130 -1z"/>
</g>
</svg>
